<mxfile host="app.diagrams.net" modified="2022-03-10T07:32:03.290Z" agent="5.0 (Windows NT 10.0; Win64; x64) AppleWebKit/537.36 (KHTML, like Gecko) Chrome/97.0.4692.99 Safari/537.36" etag="mSiS2TPPZAxA7cvIkGyg" version="16.6.6" type="github">
  <diagram id="BDvVSngGOplgBvMkCZ0S" name="Page-1">
    <mxGraphModel dx="1422" dy="772" grid="1" gridSize="10" guides="1" tooltips="1" connect="1" arrows="1" fold="1" page="1" pageScale="1" pageWidth="827" pageHeight="1169" math="0" shadow="0">
      <root>
        <mxCell id="0" />
        <mxCell id="1" parent="0" />
        <mxCell id="b1F-uJUC9WspK6oYwCPj-3" value="consumer server" style="swimlane;fillColor=#F2FFD4;dashed=1;dashPattern=1 2;" parent="1" vertex="1">
          <mxGeometry x="214" y="170" width="400" height="670" as="geometry">
            <mxRectangle x="370" y="60" width="80" height="23" as="alternateBounds" />
          </mxGeometry>
        </mxCell>
        <mxCell id="b1F-uJUC9WspK6oYwCPj-30" value="是否已推送" style="rhombus;whiteSpace=wrap;html=1;fillColor=#ffffc0;strokeColor=#000000;dashed=1;dashPattern=1 2;" parent="b1F-uJUC9WspK6oYwCPj-3" vertex="1">
          <mxGeometry x="189" y="114.45" width="80" height="40" as="geometry" />
        </mxCell>
        <mxCell id="ONsFw0UCnMqLuJ3qpuSr-2" value="" style="edgeStyle=orthogonalEdgeStyle;rounded=0;orthogonalLoop=1;jettySize=auto;html=1;" parent="b1F-uJUC9WspK6oYwCPj-3" target="b1F-uJUC9WspK6oYwCPj-46" edge="1">
          <mxGeometry relative="1" as="geometry">
            <mxPoint x="229" y="290" as="sourcePoint" />
            <Array as="points">
              <mxPoint x="229" y="290" />
            </Array>
          </mxGeometry>
        </mxCell>
        <mxCell id="pwdq7ZrsbVOp6Q4Kp9Ys-23" value="" style="edgeStyle=orthogonalEdgeStyle;rounded=0;orthogonalLoop=1;jettySize=auto;html=1;labelBackgroundColor=#F5FFFF;" parent="b1F-uJUC9WspK6oYwCPj-3" source="b1F-uJUC9WspK6oYwCPj-40" target="pwdq7ZrsbVOp6Q4Kp9Ys-22" edge="1">
          <mxGeometry relative="1" as="geometry" />
        </mxCell>
        <mxCell id="b1F-uJUC9WspK6oYwCPj-40" value="记录重推日志" style="whiteSpace=wrap;html=1;align=center;fillColor=#e1d5e7;strokeColor=#9673a6;" parent="b1F-uJUC9WspK6oYwCPj-3" vertex="1">
          <mxGeometry x="199" y="184.45" width="60" height="38.66" as="geometry" />
        </mxCell>
        <mxCell id="KlNrOT9Lmi1wFEdrxgjB-2" value="" style="edgeStyle=orthogonalEdgeStyle;rounded=0;orthogonalLoop=1;jettySize=auto;html=1;" parent="b1F-uJUC9WspK6oYwCPj-3" source="b1F-uJUC9WspK6oYwCPj-46" target="KlNrOT9Lmi1wFEdrxgjB-1" edge="1">
          <mxGeometry relative="1" as="geometry" />
        </mxCell>
        <mxCell id="b1F-uJUC9WspK6oYwCPj-46" value="商家号&lt;br&gt;路由" style="ellipse;shape=umlControl;whiteSpace=wrap;html=1;dashed=1;dashPattern=1 2;strokeColor=#000000;fillColor=#FFF2CC;gradientColor=none;" parent="b1F-uJUC9WspK6oYwCPj-3" vertex="1">
          <mxGeometry x="199" y="318.05" width="60" height="65" as="geometry" />
        </mxCell>
        <mxCell id="b1F-uJUC9WspK6oYwCPj-50" value="更新重推日志状态" style="whiteSpace=wrap;html=1;align=center;fillColor=#E1D5E7;" parent="b1F-uJUC9WspK6oYwCPj-3" vertex="1">
          <mxGeometry x="189" y="603.1100000000001" width="80" height="42.44" as="geometry" />
        </mxCell>
        <mxCell id="ONsFw0UCnMqLuJ3qpuSr-7" value="" style="edgeStyle=orthogonalEdgeStyle;rounded=0;orthogonalLoop=1;jettySize=auto;html=1;" parent="b1F-uJUC9WspK6oYwCPj-3" target="ONsFw0UCnMqLuJ3qpuSr-4" edge="1">
          <mxGeometry relative="1" as="geometry">
            <mxPoint x="229" y="503.11000000000007" as="sourcePoint" />
          </mxGeometry>
        </mxCell>
        <mxCell id="ONsFw0UCnMqLuJ3qpuSr-1" value="调用线下接口" style="whiteSpace=wrap;html=1;align=center;fillColor=#99CCFF;" parent="b1F-uJUC9WspK6oYwCPj-3" vertex="1">
          <mxGeometry x="189" y="474.45" width="80" height="35.12" as="geometry" />
        </mxCell>
        <mxCell id="ONsFw0UCnMqLuJ3qpuSr-4" value="是否成功" style="rhombus;whiteSpace=wrap;html=1;fillColor=#ffffc0;strokeColor=#000000;dashed=1;dashPattern=1 2;" parent="b1F-uJUC9WspK6oYwCPj-3" vertex="1">
          <mxGeometry x="189" y="537.6100000000001" width="80" height="40" as="geometry" />
        </mxCell>
        <mxCell id="ONsFw0UCnMqLuJ3qpuSr-5" value="否" style="edgeStyle=orthogonalEdgeStyle;html=1;align=left;verticalAlign=bottom;endArrow=open;endSize=8;strokeColor=#000000;rounded=0;exitX=1;exitY=0.5;exitDx=0;exitDy=0;" parent="b1F-uJUC9WspK6oYwCPj-3" source="ONsFw0UCnMqLuJ3qpuSr-4" edge="1">
          <mxGeometry x="-0.0644" y="-10" relative="1" as="geometry">
            <mxPoint x="269" y="494.0700000000001" as="targetPoint" />
            <Array as="points">
              <mxPoint x="316" y="558" />
              <mxPoint x="316" y="494" />
            </Array>
            <mxPoint as="offset" />
          </mxGeometry>
        </mxCell>
        <mxCell id="ONsFw0UCnMqLuJ3qpuSr-6" value="是" style="edgeStyle=orthogonalEdgeStyle;html=1;align=left;verticalAlign=top;endArrow=open;endSize=8;strokeColor=#000000;rounded=0;" parent="b1F-uJUC9WspK6oYwCPj-3" source="ONsFw0UCnMqLuJ3qpuSr-4" edge="1">
          <mxGeometry x="-0.886" relative="1" as="geometry">
            <mxPoint x="229" y="603.1100000000001" as="targetPoint" />
            <Array as="points" />
            <mxPoint as="offset" />
          </mxGeometry>
        </mxCell>
        <mxCell id="ONsFw0UCnMqLuJ3qpuSr-11" value="" style="edgeStyle=orthogonalEdgeStyle;rounded=0;orthogonalLoop=1;jettySize=auto;html=1;fontSize=14;entryX=0.5;entryY=0;entryDx=0;entryDy=0;" parent="b1F-uJUC9WspK6oYwCPj-3" source="ONsFw0UCnMqLuJ3qpuSr-10" target="b1F-uJUC9WspK6oYwCPj-30" edge="1">
          <mxGeometry relative="1" as="geometry">
            <mxPoint x="229" y="89.45" as="targetPoint" />
          </mxGeometry>
        </mxCell>
        <mxCell id="ONsFw0UCnMqLuJ3qpuSr-10" value="重推接口" style="whiteSpace=wrap;html=1;align=center;fillColor=#99CCFF;" parent="b1F-uJUC9WspK6oYwCPj-3" vertex="1">
          <mxGeometry x="199" y="44.45" width="60" height="40" as="geometry" />
        </mxCell>
        <mxCell id="KlNrOT9Lmi1wFEdrxgjB-7" value="" style="edgeStyle=orthogonalEdgeStyle;rounded=0;orthogonalLoop=1;jettySize=auto;html=1;" parent="b1F-uJUC9WspK6oYwCPj-3" source="KlNrOT9Lmi1wFEdrxgjB-1" edge="1">
          <mxGeometry relative="1" as="geometry">
            <mxPoint x="229" y="469.39000000000004" as="targetPoint" />
          </mxGeometry>
        </mxCell>
        <mxCell id="KlNrOT9Lmi1wFEdrxgjB-1" value="组装参数，订单状态过滤" style="whiteSpace=wrap;html=1;align=center;fillColor=#99CCFF;" parent="b1F-uJUC9WspK6oYwCPj-3" vertex="1">
          <mxGeometry x="189" y="409.39000000000004" width="80" height="35.12" as="geometry" />
        </mxCell>
        <mxCell id="pwdq7ZrsbVOp6Q4Kp9Ys-18" value="log记录" style="whiteSpace=wrap;html=1;align=center;fillColor=#D5E8D4;" parent="b1F-uJUC9WspK6oYwCPj-3" vertex="1">
          <mxGeometry x="79" y="115.09000000000002" width="60" height="38.72" as="geometry" />
        </mxCell>
        <mxCell id="pwdq7ZrsbVOp6Q4Kp9Ys-22" value="查询订单信息" style="whiteSpace=wrap;html=1;align=center;fillColor=#99CCFF;" parent="b1F-uJUC9WspK6oYwCPj-3" vertex="1">
          <mxGeometry x="189" y="254.45" width="80" height="35.12" as="geometry" />
        </mxCell>
        <mxCell id="pwdq7ZrsbVOp6Q4Kp9Ys-34" value="是" style="edgeStyle=orthogonalEdgeStyle;html=1;align=left;verticalAlign=top;endArrow=open;endSize=8;strokeColor=#000000;rounded=0;entryX=0.5;entryY=0;entryDx=0;entryDy=0;exitX=0.5;exitY=1;exitDx=0;exitDy=0;" parent="b1F-uJUC9WspK6oYwCPj-3" source="b1F-uJUC9WspK6oYwCPj-30" target="b1F-uJUC9WspK6oYwCPj-40" edge="1">
          <mxGeometry x="-0.753" y="10" relative="1" as="geometry">
            <mxPoint x="69" y="53.17" as="targetPoint" />
            <Array as="points" />
            <mxPoint as="offset" />
            <mxPoint x="29" y="53.17" as="sourcePoint" />
          </mxGeometry>
        </mxCell>
        <mxCell id="K54OnND1gI1t__ArXtrb-1" value="否" style="edgeStyle=orthogonalEdgeStyle;html=1;align=left;verticalAlign=bottom;endArrow=open;endSize=8;strokeColor=#000000;rounded=0;exitX=0;exitY=0.5;exitDx=0;exitDy=0;entryX=1;entryY=0.5;entryDx=0;entryDy=0;" parent="b1F-uJUC9WspK6oYwCPj-3" source="b1F-uJUC9WspK6oYwCPj-30" target="pwdq7ZrsbVOp6Q4Kp9Ys-18" edge="1">
          <mxGeometry x="-0.0644" y="-10" relative="1" as="geometry">
            <mxPoint x="279" y="504.0700000000001" as="targetPoint" />
            <Array as="points">
              <mxPoint x="169" y="134.45" />
              <mxPoint x="169" y="134.45" />
            </Array>
            <mxPoint as="offset" />
            <mxPoint x="279" y="567.6100000000001" as="sourcePoint" />
          </mxGeometry>
        </mxCell>
        <mxCell id="K54OnND1gI1t__ArXtrb-2" value="数据重推流程" style="text;strokeColor=none;fillColor=none;html=1;fontSize=24;fontStyle=1;verticalAlign=middle;align=center;" parent="1" vertex="1">
          <mxGeometry x="364" y="860" width="100" height="40" as="geometry" />
        </mxCell>
      </root>
    </mxGraphModel>
  </diagram>
</mxfile>
